# AST/ASF file generated using VICON BodyLanguage
# -----------------------------------------------
:version 1.10
:name VICON
:units
  mass 1.0
  length 0.45
  angle deg
:documentation
   .ast/.asf automatically generated from VICON data using
   VICON BodyBuilder and BodyLanguage model FoxedUp or BRILLIANT.MOD
:root
   order TX TY TZ RX RY RZ
   axis XYZ
   position 0 0 0  
   orientation 0 0 0 
:bonedata
  begin
     id 1 
     name lhipjoint
     direction 0.440178 -0.822639 0.359871 
     length 2.53113 
     axis 0 0 0  XYZ
  end
  begin
     id 2 
     name lfemur
     direction 0.34202 -0.939693 0  
     length 7.88132  
     axis 0 0 20  XYZ
    dof rx ry rz
    limits (-160.0 20.0)
           (-70.0 70.0)
           (-60.0 70.0)
  end
  begin
     id 3 
     name ltibia
     direction 0.34202 -0.939693 0   
     length 8.43783   
     axis 0 0 20   XYZ
    dof rx
    limits (-10.0 170.0)
  end
  begin
     id 4 
     name lfoot
     direction 0.0886351 -0.243523 0.965837   
     length 2.63414   
     axis -90 7.62852e-016 20   XYZ
    dof rx rz
    limits (-45.0 90.0)
           (-70.0 20.0)
  end
  begin
     id 5 
     name ltoes
     direction 1.53703e-011 -4.21717e-011 1   
     length 1.31427   
     axis -90 7.62852e-016 20   XYZ
    dof rx
    limits (-90.0 20.0)
  end
  begin
     id 6 
     name rhipjoint
     direction -0.399779 -0.839773 0.367367   
     length 2.47948  
     axis 0 0 0  XYZ 
  end
  begin
     id 7 
     name rfemur
     direction -0.34202 -0.939693 0   
     length 7.74806   
     axis 0 0 -20   XYZ
    dof rx ry rz
    limits (-160.0 20.0)
           (-70.0 70.0)
           (-70.0 60.0)
  end
  begin
     id 8 
     name rtibia
     direction -0.34202 -0.939693 0   
     length 8.74432   
     axis 0 0 -20   XYZ
    dof rx
    limits (-10.0 170.0)
 end
 begin
     id 9 
     name rfoot
     direction -0.108514 -0.298139 0.948334   
     length 2.66102  
     axis -90 -7.62852e-016 -20   XYZ
    dof rx rz
    limits (-45.0 90.0)
           (-20.0 70.0)
  end
  begin
     id 10 
     name rtoes
     direction -1.53392e-011 -4.22077e-011 1   
     length 1.31983   
     axis -90 -7.62852e-016 -20   XYZ
    dof rx
    limits (-90.0 20.0)
  end
  begin
     id 11 
     name lowerback
     direction 0.0113257 0.999866 0.0118602   
     length 2.58694   
     axis 0 0 0   XYZ
    dof rx ry rz
    limits (-20.0 45.0)
           (-30.0 30.0)
           (-30.0 30.0)
  end
  begin
     id 12 
     name upperback
     direction -0.0164747 0.995193 -0.0965375   
     length 2.52368   
     axis 0 0 0   XYZ
    dof rx ry rz
    limits (-20.0 45.0)
           (-30.0 30.0)
           (-30.0 30.0)
  end
  begin
     id 13 
     name thorax
     direction -0.0194301 0.99433 -0.104552   
     length 2.56099   
     axis 0 0 0   XYZ
    dof rx ry rz
    limits (-20.0 45.0)
           (-30.0 30.0)
           (-30.0 30.0)
  end
  begin
     id 14 
     name lowerneck
     direction 0.0148543 0.995587 -0.092657   
     length 1.71582   
     axis 0 0 0   XYZ
    dof rx ry rz
    limits (-20.0 45.0)
           (-30.0 30.0)
           (-30.0 30.0)
  end
  begin
     id 15 
     name upperneck
     direction -0.0135467 0.993656 -0.111639   
     length 1.68937   
     axis 0 0 0   XYZ
    dof rx ry rz
    limits (-20.0 45.0)
           (-30.0 30.0)
           (-30.0 30.0)
  end
  begin
     id 16
     name head
     direction -0.00615349 0.999547 -0.029448  
     length 1.7462  
     axis 0 0 0   XYZ
    dof rx ry rz
    limits (-20.0 45.0)
           (-30.0 30.0)
           (-30.0 30.0)
  end
  begin
     id 17 
     name lclavicle
     direction 0.988267 0.149885 0.0293713  
     length 4.47222  
     axis 0 0 0   XYZ
    dof ry rz
    limits (-20.0 10.0)
           (0.0 20.0)
  end
  begin
     id 18 
     name lhumerus
     direction 1 -4.48986e-011 -1.14833e-027   
     length 5.37148   
     axis 180 -30 -90   XYZ
    dof rx ry rz
    limits (-60.0 90.0)
           (-90.0 90.0)
           (-90.0 90.0)
  end
  begin
     id 19
     name lradius
     direction 0.999998 0.00170963 -0.000987055   
     length 3.94212   
     axis 180 -30 -90   XYZ
    dof rx
    limits (-10.0 170.0)
  end
  begin
     id 20
     name lwrist
     direction 0.999998 7.53149e-005 -0.00194706   
     length 1.97106   
     axis 4.65056e-015 90 90   XYZ
    dof ry
    limits (-180.0 0.0)
 end
  begin
     id 21 
     name lhand
     direction 1 -4.48973e-011 -1.31746e-026   
     length 1.17917   
     axis 8.4065e-015 90 90   XYZ
    dof rx rz
    limits (-90.0 90.0)
           (-45.0 45.0)
  end
  begin
     id 22 
     name lfingers
     direction 1 -4.49107e-011 -2.63492e-026   
     length 0.950679   
     axis 1.6813e-014 90 90   XYZ
    dof rx
    limits (0.0 90.0)
  end
  begin
     id 23
     name lthumb
     direction 0.707107 -6.35048e-011 0.707107   
     length 1.36499   
     axis -90 45 2.85299e-015   XYZ
    dof rx rz
    limits (-45.0 45.0)
           (-45.0 45.0)
  end
  begin
     id 24 
     name rclavicle
     direction -0.996699 0.0642895 -0.0495725   
     length 4.62611  
     axis 0 0 0   XYZ 
    dof ry rz
    limits (-10.0 20.0)
           (-20.0 0.0)
  end
  begin
     id 25 
     name rhumerus
     direction -1 -4.48919e-011 -2.41059e-027  
     length 5.4981   
     axis 180 30 90   XYZ
    dof rx ry rz
    limits (-90.0 60.0)
           (-90.0 90.0)
           (-90.0 90.0)
  end
  begin
     id 26 
     name rradius
     direction -0.999999 0.00118101 -0.000681858   
     length 3.48381   
     axis 180 30 90   XYZ
    dof rx
    limits (-10.0 170.0)
  end
  begin
     id 27 
     name rwrist
     direction -0.999999 0.000321823 -0.00132288   
     length 1.7419   
     axis 4.65056e-015 -90 -90   XYZ
    dof ry
    limits (-180.0 0.0)
  end
  begin
     id 28
     name rhand
     direction -1 -4.49022e-011 -1.31746e-026   
     length 1.34932   
     axis 8.4065e-015 -90 -90   XYZ
    dof rx rz
    limits (-90.0 90.0)
           (-45.0 45.0)
  end
  begin
     id 29
     name rfingers
     direction -1 -4.49178e-011 -2.63492e-026   
     length 1.08785   
     axis 1.6813e-014 -90 -90   XYZ
    dof rx
    limits (0.0 90.0)
  end
  begin
     id 30
     name rthumb
     direction -0.707107 -6.34713e-011 0.707107   
     length 1.56195   
     axis -90 -45 -2.85299e-015   XYZ
    dof rx rz
    limits (-45.0 45.0)
           (-45.0 45.0)
  end
:hierarchy
  begin
    root lhipjoint rhipjoint lowerback
    lhipjoint lfemur
    lfemur ltibia
    ltibia lfoot
    lfoot ltoes
    rhipjoint rfemur
    rfemur rtibia
    rtibia rfoot
    rfoot rtoes
    lowerback upperback
    upperback thorax
    thorax lowerneck lclavicle rclavicle
    lowerneck upperneck
    upperneck head
    lclavicle lhumerus
    lhumerus lradius
    lradius lwrist
    lwrist lhand lthumb
    lhand lfingers
    rclavicle rhumerus
    rhumerus rradius
    rradius rwrist
    rwrist rhand rthumb
    rhand rfingers
  end

#!OML:ASF X:\für Bonn\!DataBase\2005_08_10_Bjorn_Final\c3d\bjorn.ASF
:FULLY-SPECIFIED
:DEGREES
1
root 3.64548 18.802 4.91095 -172.797 -6.13877 183.926
lowerback 0.450365 0.164946 0.058866
upperback 8.8418 -0.399318 -3.20602
thorax 9.03736 -0.391636 -3.5184
lowerneck 0.819778 2.29521 -3.45412
upperneck 5.85735 2.94313 -0.683569
head 1.63465 1.30484 0.395369
rclavicle -1.90833e-014 -5.08889e-014
rhumerus -30.2781 -26.5989 -81.4592
rradius 22.2554
rwrist 14.0995
rhand -10.6706 15.1269
rfingers 7.12502
rthumb 15.3378 -14.2843
lclavicle -1.90833e-014 -5.08889e-014
lhumerus -14.0601 -29.477 77.9
lradius 52.4165
lwrist -18.176
lhand -15.8221 -7.10605
lfingers 7.12502
lthumb 10.3718 22.6182
rfemur -36.5134 -9.85842 23.3799
rtibia 46.2033
rfoot -13.823 11.5321
rtoes -7.30985
lfemur -15.915 4.60475 -14.3458
ltibia 37.6917
lfoot -23.7459 -1.24857
ltoes -12.0614
2
root 3.63861 18.8112 4.92677 -172.739 -6.20429 183.958
lowerback 0.540847 0.117917 0.046289
upperback 8.88236 -0.472568 -3.20629
thorax 9.02431 -0.432328 -3.51677
lowerneck 0.845341 2.34192 -3.58858
upperneck 5.75925 2.99988 -0.479108
head 1.59344 1.33818 0.480558
rclavicle -1.27222e-014 -1.43125e-014
rhumerus -30.3585 -25.8363 -81.776
rradius 22.6364
rwrist 13.4833
rhand -10.597 15.1701
rfingers 7.12502
rthumb 15.4087 -14.2357
lclavicle -1.27222e-014 -1.43125e-014
lhumerus -13.6753 -29.3578 77.7129
lradius 52.7256
lwrist -18.2852
lhand -15.9121 -6.99467
lfingers 7.12502
lthumb 10.285 22.7339
rfemur -36.668 -9.97066 23.5886
rtibia 46.4058
rfoot -14.0852 10.8854
rtoes -7.37787
lfemur -16.0072 4.68279 -14.3341
ltibia 37.6047
lfoot -23.6567 -1.4011
ltoes -12.0875
3
root 3.63145 18.8189 4.94186 -172.672 -6.27617 183.975
lowerback 0.629771 0.068742 0.0315887
upperback 8.91778 -0.547808 -3.20514
thorax 9.00638 -0.473927 -3.51219
lowerneck 0.861097 2.37896 -3.7542
upperneck 5.67392 3.04327 -0.250142
head 1.55749 1.36418 0.578747
rclavicle 3.4191e-014 5.725e-014
rhumerus -30.4464 -25.0301 -82.0877
rradius 23.0205
rwrist 12.8143
rhand -10.5184 15.2414
rfingers 7.12502
rthumb 15.4844 -14.1585
lclavicle 3.4191e-014 5.725e-014
lhumerus -13.3002 -29.1969 77.5674
lradius 52.9766
lwrist -18.3399
lhand -16.0823 -6.94744
lfingers 7.12502
lthumb 10.1207 22.7892
rfemur -36.8156 -9.99248 23.7569
rtibia 46.6173
rfoot -14.4181 10.2365
rtoes -7.57365
lfemur -16.1104 4.78373 -14.3372
ltibia 37.531
lfoot -23.5612 -1.60241
ltoes -11.9422
4
root 3.62484 18.8262 4.95544 -172.612 -6.34114 183.99
lowerback 0.699133 0.0291572 0.0385057
upperback 8.97698 -0.613433 -3.21713
thorax 9.02718 -0.509485 -3.53471
lowerneck 0.823736 2.41455 -3.87183
upperneck 5.59324 3.08919 -0.0310569
head 1.53289 1.39269 0.666901
rclavicle 3.26007e-014 6.52014e-014
rhumerus -30.518 -24.2902 -82.423
rradius 23.4083
rwrist 12.2274
rhand -10.5049 15.2504
rfingers 7.12502
rthumb 15.4974 -14.1485
lclavicle 3.26007e-014 6.52014e-014
lhumerus -12.9079 -29.0343 77.4069
lradius 53.2295
lwrist -18.3638
lhand -16.2683 -6.87342
lfingers 7.12502
lthumb 9.94132 22.8718
rfemur -36.9478 -9.90749 23.8901
rtibia 46.838
rfoot -14.7343 9.58852
rtoes -7.52497
lfemur -16.2143 4.93716 -14.3384
ltibia 37.4667
lfoot -23.4635 -1.83898
ltoes -11.7786
5
root 3.61734 18.834 4.9686 -172.529 -6.41009 184.004
lowerback 0.767257 -0.0107193 0.0698893
upperback 9.01168 -0.676214 -3.2425
thorax 9.02154 -0.540076 -3.58386
lowerneck 0.809425 2.44165 -3.89774
upperneck 5.50883 3.12415 0.13122
head 1.50522 1.41638 0.721488
rclavicle -2.38542e-015 -3.49861e-014
rhumerus -30.6259 -23.5617 -82.7599
rradius 23.7887
rwrist 11.6546
rhand -10.5186 15.2619
rfingers 7.12502
rthumb 15.4842 -14.138
lclavicle -2.38542e-015 -3.49861e-014
lhumerus -12.5703 -28.9154 77.2386
lradius 53.494
lwrist -18.3072
lhand -16.467 -6.81966
lfingers 7.12502
lthumb 9.74961 22.9347
rfemur -37.1198 -9.84461 24.0372
rtibia 47.0688
rfoot -15.0615 9.04676
rtoes -7.77536
lfemur -16.3408 5.04724 -14.3471
ltibia 37.41
lfoot -23.3674 -2.04061
ltoes -11.466
6
root 3.61099 18.841 4.98027 -172.448 -6.47864 184.015
lowerback 0.821052 -0.0595453 0.0736134
upperback 9.0668 -0.753052 -3.24307
thorax 9.04624 -0.581155 -3.59314
lowerneck 0.645235 2.46813 -3.90711
upperneck 5.52542 3.16888 0.205056
head 1.53685 1.44139 0.749621
rclavicle -3.18055e-014 -7.95139e-014
rhumerus -30.6883 -22.7742 -83.1022
rradius 24.1873
rwrist 11.0763
rhand -10.5315 15.1958
rfingers 7.12502
rthumb 15.4717 -14.2051
lclavicle -3.18055e-014 -7.95139e-014
lhumerus -12.2273 -28.7262 77.1006
lradius 53.7481
lwrist -18.2625
lhand -16.6621 -6.75059
lfingers 7.12502
lthumb 9.56136 23.0125
rfemur -37.2876 -9.73664 24.1713
rtibia 47.3044
rfoot -15.3782 8.61492
rtoes -8.02425
lfemur -16.4719 5.21038 -14.3524
ltibia 37.3638
lfoot -23.2787 -2.29193
ltoes -11.2774
7
root 3.60387 18.8473 4.99057 -172.376 -6.54488 184.041
lowerback 0.886004 -0.107372 0.11584
upperback 9.12033 -0.83009 -3.24561
thorax 9.06243 -0.619279 -3.62576
lowerneck 0.500735 2.49431 -3.82914
upperneck 5.51131 3.21487 0.204732
head 1.55744 1.46822 0.739238
rclavicle -1.74931e-014 -3.49861e-014
rhumerus -30.7598 -22.0189 -83.4402
rradius 24.5645
rwrist 10.5171
rhand -10.584 15.1166
rfingers 7.12502
rthumb 15.4212 -14.2882
lclavicle -1.74931e-014 -3.49861e-014
lhumerus -11.9283 -28.5591 76.9594
lradius 54.0296
lwrist -18.1996
lhand -16.8405 -6.70773
lfingers 7.12502
lthumb 9.38921 23.0631
rfemur -37.4486 -9.6202 24.318
rtibia 47.5306
rfoot -15.6414 8.36315
rtoes -8.41937
lfemur -16.5996 5.39557 -14.3451
ltibia 37.3367
lfoot -23.1957 -2.54544
ltoes -11.0736
8
root 3.59656 18.852 4.9994 -172.301 -6.62608 184.052
lowerback 0.946082 -0.164224 0.149992
upperback 9.1751 -0.918963 -3.24753
thorax 9.08207 -0.663821 -3.65406
lowerneck 0.377235 2.52154 -3.76235
upperneck 5.43691 3.26199 0.217048
head 1.55487 1.49737 0.73362
rclavicle -1.27222e-014 -4.13472e-014
rhumerus -30.8126 -21.3125 -83.762
rradius 24.9072
rwrist 10.0213
rhand -10.6849 15.0561
rfingers 7.12502
rthumb 15.324 -14.3561
lclavicle -1.27222e-014 -4.13472e-014
lhumerus -11.6484 -28.3957 76.8136
lradius 54.3027
lwrist -18.1274
lhand -17.0776 -6.6709
lfingers 7.12502
lthumb 9.16042 23.1101
rfemur -37.6077 -9.50557 24.4501
rtibia 47.7392
rfoot -15.8664 8.29372
rtoes -8.90488
lfemur -16.7392 5.58737 -14.3491
ltibia 37.336
lfoot -23.1372 -2.83959
ltoes -10.7648
9
root 3.58947 18.8535 5.00625 -172.218 -6.68252 184.051
lowerback 0.979062 -0.202138 0.187143
upperback 9.24914 -0.984363 -3.25554
thorax 9.14072 -0.696795 -3.69087
lowerneck 0.179291 2.53852 -3.64188
upperneck 5.38697 3.30092 0.181332
head 1.57468 1.52246 0.705606
rclavicle -3.02153e-014 -8.42847e-014
rhumerus -30.8162 -20.7398 -84.07
rradius 25.2161
rwrist 9.60607
rhand -10.7623 14.9858
rfingers 7.12502
rthumb 15.2494 -14.4321
lclavicle -3.02153e-014 -8.42847e-014
lhumerus -11.3422 -28.2896 76.6464
lradius 54.5803
lwrist -17.9958
lhand -17.3411 -6.65577
lfingers 7.12502
lthumb 8.90618 23.1363
rfemur -37.7651 -9.36325 24.563
rtibia 47.9186
rfoot -16.0128 8.52864
rtoes -9.03032
lfemur -16.8902 5.78937 -14.3697
ltibia 37.363
lfoot -23.1092 -3.14685
ltoes -10.502
